Coordinates
version=1
nRows=21
nColumns=12
inDegrees=yes

Units are S.I. units (second, meters, Newtons, ...)
Angles are in degrees

endheader
time	SC_y	SC_z	SC_x	AC_y	AC_z	AC_x	GH_y	GH_z	GH_yy	EL_x	PS_y
       0.0               -45.6          22.69           77.4          45.45         -5.206         -3.809          100.4          51.86         -29.39          88.96          118.3
   0.04843               -45.6          22.69           77.4          45.45         -5.207          -3.81          100.4          51.86         -29.39          88.97          118.3
   0.09687               -45.6          22.69          77.39          45.45         -5.208         -3.811          100.3          51.86         -29.39          88.97          118.3
    0.1453               -45.6          22.68          77.39          45.45         -5.209         -3.812          100.3          51.86         -29.39          88.98          118.3
    0.1937               -45.6          22.68          77.39          45.45          -5.21         -3.813          100.3          51.85         -29.39          88.98          118.3
    0.2422               -45.6          22.68          77.38          45.45         -5.212         -3.814          100.3          51.85         -29.39          88.99          118.3
    0.2906               -45.6          22.68          77.38          45.45         -5.213         -3.815          100.3          51.85         -29.39           89.0          118.3
     0.339               -45.6          22.68          77.37          45.45         -5.215         -3.817          100.3          51.84         -29.38           89.0          118.3
    0.3875               -45.6          22.68          77.37          45.45         -5.217         -3.818          100.3          51.84         -29.38          89.01          118.3
    0.4359               -45.6          22.67          77.36          45.45         -5.219          -3.82          100.2          51.83         -29.38          89.02          118.3
    0.4843               -45.6          22.67          77.36          45.46         -5.221         -3.821          100.2          51.83         -29.38          89.03          118.3
    0.5328               -45.6          22.67          77.35          45.46         -5.223         -3.823          100.2          51.83         -29.38          89.04          118.3
    0.5812               -45.6          22.67          77.34          45.46         -5.225         -3.825          100.2          51.82         -29.37          89.05          118.4
    0.6296               -45.6          22.66          77.33          45.46         -5.228         -3.827          100.2          51.81         -29.37          89.06          118.4
    0.6781               -45.6          22.66          77.33          45.46          -5.23         -3.829          100.1          51.81         -29.37          89.07          118.4
    0.7265               -45.6          22.66          77.32          45.46         -5.233         -3.832          100.1           51.8         -29.37          89.09          118.4
    0.7749               -45.6          22.65          77.31          45.47         -5.237         -3.834          100.1          51.79         -29.36           89.1          118.4
    0.8234               -45.6          22.65           77.3          45.47          -5.24         -3.837          100.0          51.79         -29.36          89.12          118.4
    0.8718               -45.6          22.64          77.28          45.47         -5.244          -3.84          100.0          51.78         -29.36          89.13          118.5
    0.9202               -45.6          22.64          77.27          45.47         -5.248         -3.844          99.97          51.77         -29.35          89.15          118.5
    0.9687               -45.6          22.63          77.26          45.48         -5.253         -3.848          99.93          51.76         -29.35          89.17          118.5
